# xmcd CD database file
#
# Track frame offsets:
#	150
#	9773
#	13903
#	26361
#	37797
#	50078
#	57334
#	71160
#	84500
#	94830
#	98420
#	113640
#
# Disc length: 1784 seconds
#
# Revision: 0
# Processed by: cddbd v1.5.2PL0 Copyright (c) Steve Scherf et al.
# Submitted via: CDex 1.51
#
DISCID=8806f60c
DTITLE=Achilles - Hospice
DYEAR=2007
DGENRE=Salsa
TTITLE0=Curtains
TTITLE1=Curtains (Continued)
TTITLE2=We are Fixtures
TTITLE3=Dear Old Tyger that Sleeps
TTITLE4=To the Teeth
TTITLE5=Raping the Dead
TTITLE6=Standing Night
TTITLE7=Reprieve
TTITLE8=Swallow
TTITLE9=In These Stark Halls
TTITLE10=Sea Level
TTITLE11=The Cold Floor
EXTD=YEAR: 2007
EXTT0=
EXTT1=
EXTT2=
EXTT3=
EXTT4=
EXTT5=
EXTT6=
EXTT7=
EXTT8=
EXTT9=
EXTT10=
EXTT11=
PLAYORDER=
